<svg height="472pt" viewBox="0 -4 472.06723 472" width="472pt" xmlns="http://www.w3.org/2000/svg"><path d="m112.066406 8.039062h16v232h-16zm0 0" fill="#dedede"/><path d="m80.066406 416.039062c-.050781 6.761719 4.148438 12.824219 10.496094 15.148438 6.34375 2.324219 13.46875.410156 17.796875-4.78125 4.324219-5.191406 4.921875-12.542969 1.492187-18.367188h33.496094c3.304688 18.863282-4.917968 37.882813-20.917968 48.398438-16.003907 10.515625-36.722657 10.515625-52.722657 0-16.003906-10.515625-24.222656-29.535156-20.917969-48.398438h33.496094c-1.4375 2.425782-2.199218 5.1875-2.21875 8zm0 0" fill="#734730"/><path d="m436.066406 384.039062h15.703125c14.316407 15.933594 16.34375 39.421876 4.972657 57.570313-11.375 18.148437-33.394532 26.566406-53.972657 20.632813-20.582031-5.933594-34.738281-24.785157-34.703125-46.203126.023438-2.8125.289063-5.617187.800782-8.382812 11.289062-.847656 22.105468-4.875 31.199218-11.617188 10.386719-7.789062 23.019532-12 36-12zm0 0" fill="#734730"/><path d="m432.066406 416.039062c0 8.839844-7.164062 16-16 16-8.835937 0-16-7.160156-16-16 0-8.835937 7.164063-16 16-16 8.835938 0 16 7.164063 16 16zm0 0" fill="#dedede"/><path d="m352.066406 192.039062h24l16-32h-40c-8.835937 0-16 7.164063-16 16 0 8.839844 7.164063 16 16 16zm0 0" fill="#f05d46"/><path d="m96.066406 432.039062c-5.726562.035157-11.03125-3.011718-13.886718-7.980468-2.851563-4.96875-2.8125-11.085938.105468-16.019532h27.566406c2.917969 4.933594 2.957032 11.050782.101563 16.019532-2.851563 4.96875-8.15625 8.015625-13.886719 7.980468zm0 0" fill="#dedede"/><path d="m8.066406 388.96875c0-52.929688 56-76.929688 56-76.929688v-32h176c0 24-16 24-16 24h-4c-19.882812 0-36 16.121094-36 36 0 19.882813 16.117188 36 36 36h82.710938c5.746094.003907 11.050781-3.074218 13.898437-8.0625l27.390625-47.9375-8-88c-1.328125-19.613281 12.570313-36.988281 32-40l12.554688 99.304688c2.09375 12.566406 11.441406 22.695312 23.796875 25.785156l11.648437 2.910156v24h-16c-26.507812 0-48 21.492188-48 48v16h-344zm0 0" fill="#f05d46"/><path d="m400.066406 344.039062h32c22.09375 0 40 17.910157 40 40h-36c-12.980468 0-25.613281 4.210938-36 12-9.09375 6.742188-19.910156 10.769532-31.199218 11.617188-1.601563.128906-3.199219.382812-4.800782.382812h-12v-16c0-26.507812 21.492188-48 48-48zm0 0" fill="#f05d46"/><path d="m360.066406 408.039062h-16v-16c.035156-30.910156 25.085938-55.964843 56-56h16v16h-16c-22.078125.027344-39.972656 17.921876-40 40zm0 0" fill="#d64d37"/><path d="m240.066406 280.039062h-88v-16c0-8.835937 7.164063-16 16-16h56c8.835938 0 16 7.164063 16 16zm0 0" fill="#734730"/><path d="m336.066406 408.039062c-4.703125 18.808594-21.597656 32-40.984375 32h-86.03125c-19.382812 0-36.28125-13.191406-40.984375-32zm0 0" fill="#dedede"/><path d="m304.066406 168.039062v16h40c4.417969 0 8-3.578124 8-8 0-4.417968-3.582031-8-8-8zm0 0" fill="#8c563b"/><path d="m120.066406 288.039062h-56c-.742187.003907-1.484375-.101562-2.199218-.308593l-49.382813-14.089844c-8.246094-2.320313-13.507813-10.371094-12.320313-18.855469 1.1875-8.480468 8.460938-14.777344 17.023438-14.746094h102.878906c4.417969 0 8 3.582032 8 8v32c0 4.421876-3.582031 8-8 8zm-54.878906-16h46.878906v-16h-94.878906c-.5625-.003906-1.039062.410157-1.117188.96875-.078124.554688.269532 1.085938.8125 1.234376zm0 0" fill="#dedede"/><path d="m24.066406 144.039062h88c8.835938 0 16 7.164063 16 16v80h-120v-80c0-8.835937 7.164063-16 16-16zm0 0" fill="#f05d46"/><path d="m8.066406 168.039062h120v16h-120zm0 0" fill="#d64d37"/><path d="m152.066406 216.039062c0 17.675782 14.328125 32 32 32h88l-32 96h32l34.914063-90.765624c3.1875-8.300782 2.152343-17.632813-2.777344-25.03125-5.082031-7.625-13.636719-12.203126-22.800781-12.203126zm0 0" fill="#8c563b"/><path d="m304.066406 376.039062h-72l8-32h32c17.675782 0 32 14.328126 32 32zm0 0" fill="#dedede"/><path d="m152.066406 96.039062h64v120h-64zm0 0" fill="#d64d37"/><path d="m216.066406 32.039062h-64v64h64v-32h16l-16-24zm0 0" fill="#fec9a3"/><path d="m208.066406 152.039062-12.328125-41.300781c-2.597656-10.398437-13.136719-16.71875-23.53125-14.117187-10.394531 2.601562-16.714843 13.136718-14.117187 23.53125l13.433594 45.710937c2.671874 10.683594 12.269531 18.175781 23.28125 18.175781h93.261718v-32zm0 0" fill="#f05d46"/><path d="m304.066406 152.039062h-16v32h16c8.835938 0 16-7.160156 16-16 0-8.835937-7.164062-16-16-16zm0 0" fill="#fec9a3"/><path d="m128.066406 8.039062h-17.503906c-4.269531 0-8.484375.996094-12.304688 2.90625-6.523437 3.261719-14.078124 3.800782-21 1.496094l-13.191406-4.402344v48l13.191406 4.402344c6.921876 2.304688 14.476563 1.765625 21-1.496094 3.820313-1.910156 8.035157-2.90625 12.304688-2.90625h17.503906zm0 0" fill="#f05d46"/><path d="m64.066406 312.039062h-48v44.167969c11.054688-19.328125 27.820313-34.757812 48-44.167969zm0 0" fill="#c44639"/><g fill="#d64d37"><path d="m144.066406 304.039062h-88c-4.417968 0-8 3.582032-8 8 0 4.421876 3.582032 8 8 8h88c4.417969 0 8-3.578124 8-8 0-4.417968-3.582031-8-8-8zm0 0"/><path d="m104.066406 336.039062h48v16h-48zm0 0"/><path d="m104.066406 368.039062h48v16h-48zm0 0"/></g><path d="m214.9375 24.039062c-3.996094-15.601562-18.988281-25.78125-34.964844-23.75-15.976562 2.03125-27.941406 15.644532-27.90625 31.75v8h96v-16zm0 0" fill="#f05d46"/></svg>